# Blender v2.76 (sub 0) OBJ File: 'Sackboy.blend'
# www.blender.org
mtllib lLeg.mtl
o rdmobj00.003_rdmobj00.002
v 3.172780 -5.399216 1.753077
v 3.387774 -6.251415 1.440450
v 3.636332 -5.352273 0.819570
v 3.781552 -5.925549 0.672994
v 2.975818 -4.452224 1.644974
v 3.494099 -4.705110 0.687764
v 3.389514 -5.095837 -0.441334
v 3.422651 -5.422536 -0.349808
v 3.468261 -5.699145 -0.547044
v 2.207586 -4.319716 -1.285208
v 3.095300 -4.091162 -0.874499
v 2.511170 -5.314145 -0.843410
v 2.506685 -5.505083 -0.734078
v 2.521266 -5.688226 -0.919009
v 2.617567 -6.366607 -1.658140
v 3.654215 -6.418748 -1.268553
v 4.068493 -6.842667 0.100407
v 3.604695 -6.980000 1.077603
v 2.479378 -7.065831 1.400701
v 2.455807 -6.458463 1.858128
v 2.250206 -5.502209 2.163455
v 2.033652 -4.424008 2.053466
v 1.779554 -3.410784 1.660238
v 2.695218 -3.427559 1.270787
v 3.202363 -3.692163 0.298044
v 1.539815 -7.024804 0.868267
v 1.548718 -6.381529 1.324488
v 1.380966 -5.585789 1.573967
v 1.212693 -4.715315 1.392117
v 1.024355 -3.711797 1.034451
v 1.253227 -4.348734 -0.997915
v 1.453990 -5.342634 -0.584761
v 1.502605 -5.576684 -0.411059
v 1.556189 -5.894026 -0.543518
v 1.552606 -6.584913 -1.258038
v 1.760746 -3.597914 -1.238705
v 1.058834 -3.746120 -0.915941
v 0.948141 -3.189286 0.726753
v 1.487301 -2.804521 1.172272
v 2.118297 -2.663211 0.801987
v 2.542687 -2.779321 -0.015272
v 2.465830 -3.160260 -0.912841
v 2.795542 -7.147043 -1.982024
v 3.831749 -7.145593 -1.512150
v 2.838778 -7.480442 -2.057636
v 3.901000 -7.480965 -1.592509
v 4.199851 -7.138628 0.080314
v 3.659256 -7.150634 1.289191
v 2.864604 -7.672143 -1.882508
v 3.812449 -7.672144 -1.480559
v 4.226969 -7.672144 0.120831
v 4.319095 -7.483046 0.087699
v 3.833471 -7.672145 1.488917
v 3.851613 -7.516800 1.517673
v 2.435430 -7.516139 2.005720
v 2.429431 -7.149736 1.672574
v 1.397664 -7.149391 1.025075
v 1.253232 -7.507043 1.044320
v 1.347381 -7.672146 1.039500
v 2.433589 -7.672144 1.969635
v 1.677655 -7.672135 -1.499247
v 1.607913 -7.478517 -1.674243
v 1.633225 -7.145872 -1.596839
v 1.209874 -7.672143 -0.311993
v 2.726376 -7.672144 -0.084844
v 1.257153 -7.003185 -0.121033
v 1.250787 -6.182196 0.579112
v 1.164123 -5.611299 0.634932
v 1.070010 -5.055516 0.388936
v 0.885350 -4.073294 0.014454
v 1.308511 -2.628642 0.620661
v 1.509421 -2.464797 0.353042
v 1.108508 -2.881411 0.482772
v 1.049888 -3.318352 -0.782532
v 0.968192 -3.174253 -0.103007
v 1.655319 -2.718190 -0.754036
v 1.421072 -3.017222 -0.914667
v 1.619873 -2.494724 -0.203085
v 0.797226 -3.613766 -0.102066
v 1.008842 -3.234249 -0.089859
v 1.115731 -3.377841 -0.697568
v 1.119197 -2.887754 0.434426
v 1.752796 -2.820508 -0.685307
v 1.680475 -2.578945 -0.194484
v 1.579040 -2.457706 0.309746
v 1.360399 -2.561769 0.556862
v 1.439769 -3.184485 -0.847518
v 1.100553 -7.484656 -0.356594
v 1.187028 -7.141704 -0.352984
vt 0.903048 0.869513
vt 0.903048 0.833131
vt 0.874919 0.869510
vt 0.874919 0.833126
vt 0.903049 0.902580
vt 0.874919 0.902576
vt 0.847422 0.902571
vt 0.847421 0.869499
vt 0.847421 0.833101
vt 0.818491 0.933308
vt 0.847421 0.933301
vt 0.818491 0.902578
vt 0.818491 0.869508
vt 0.818491 0.833121
vt 0.818491 0.802124
vt 0.847327 0.801990
vt 0.874919 0.802113
vt 0.903048 0.802110
vt 0.935493 0.802110
vt 0.935495 0.833138
vt 0.935495 0.869517
vt 0.935495 0.902583
vt 0.935497 0.933369
vt 0.903049 0.933372
vt 0.874918 0.933330
vt 0.962242 0.802110
vt 0.962242 0.833141
vt 0.962242 0.869525
vt 0.962240 0.902592
vt 0.962242 0.933374
vt 0.796049 0.933337
vt 0.796049 0.902596
vt 0.796049 0.869524
vt 0.796049 0.833126
vt 0.796049 0.802124
vt 0.818491 0.964258
vt 0.796049 0.964246
vt 0.962244 0.964249
vt 0.935498 0.964268
vt 0.903053 0.964289
vt 0.874918 0.964299
vt 0.847421 0.964287
vt 0.818491 0.792311
vt 0.847422 0.792312
vt 0.818491 0.781686
vt 0.847422 0.781686
vt 0.874921 0.792314
vt 0.903048 0.792314
vt 0.818491 0.772333
vt 0.847422 0.772333
vt 0.874919 0.772333
vt 0.874919 0.781686
vt 0.903048 0.772333
vt 0.903048 0.781685
vt 0.935493 0.781685
vt 0.935493 0.792314
vt 0.962240 0.792314
vt 0.962240 0.781686
vt 0.962240 0.772333
vt 0.935493 0.772333
vt 0.796040 0.772333
vt 0.796049 0.781686
vt 0.796052 0.792349
vt 0.314976 0.486104
vt 0.311916 0.517785
vt 0.346628 0.512362
vt 0.322704 0.545578
vt 0.349909 0.554482
vt 0.371589 0.544999
vt 0.380978 0.511181
vt 0.371879 0.475408
vt 0.343639 0.464234
vt 0.983387 0.802101
vt 0.983382 0.833095
vt 0.983387 0.869504
vt 0.983390 0.902580
vt 0.983390 0.933311
vt 0.763419 0.802101
vt 0.763416 0.833095
vt 0.763419 0.869504
vt 0.763424 0.902580
vt 0.763422 0.933311
vt 0.763427 0.964239
vt 0.763426 0.987975
vt 0.796049 0.987976
vt 0.962244 0.987978
vt 0.983393 0.964239
vt 0.983392 0.987975
vt 0.031846 0.379152
vt 0.031844 0.373348
vt 0.046268 0.380584
vt 0.050397 0.376440
vt 0.038726 0.391954
vt 0.042072 0.395859
vt 0.031857 0.395011
vt 0.031857 0.400224
vt 0.616694 0.322855
vt 0.616324 0.327839
vt 0.603854 0.321933
vt 0.601104 0.325695
vt 0.588111 0.311862
vt 0.606397 0.305946
vt 0.608125 0.311695
vt 0.592535 0.313747
vt 0.589176 0.319032
vt 0.592357 0.316925
vt 0.046270 0.386811
vt 0.053386 0.386967
vt 0.818491 0.987985
vt 0.847419 0.988011
vt 0.875267 0.988004
vt 0.903053 0.987993
vt 0.935498 0.987981
vt 0.763327 0.772333
vt 0.763490 0.781641
vt 0.763424 0.792316
vt 0.983302 0.772333
vt 0.983451 0.781641
vt 0.983392 0.792316
vn 0.892700 0.061500 0.446400
vn 0.868600 0.095700 0.486300
vn 0.879900 0.230400 0.415500
vn 0.854900 0.277200 0.438500
vn 0.971300 0.182300 -0.153000
vn 0.982000 0.048500 -0.182400
vn 0.939400 0.286200 -0.188800
vn 0.938900 0.288600 -0.187600
vn 0.457900 -0.240500 -0.855900
vn 0.452600 -0.238000 -0.859400
vn 0.461800 -0.448900 -0.765000
vn 0.394300 -0.210600 -0.894500
vn 0.267200 0.588300 -0.763200
vn 0.269900 0.694700 -0.666700
vn 0.257800 0.728300 -0.634900
vn 0.277100 0.715100 -0.641800
vn 0.908100 0.389300 -0.154300
vn 0.908500 0.385300 -0.161800
vn 0.902600 0.013700 0.430300
vn 0.883900 0.030800 0.466600
vn 0.282800 -0.358800 0.889500
vn 0.442200 -0.528600 0.724600
vn 0.438300 -0.210000 0.873900
vn 0.416700 -0.194000 0.888100
vn 0.382400 0.182900 0.905700
vn 0.396200 0.171600 0.902000
vn 0.372300 0.415500 0.829900
vn 0.364000 0.405800 0.838300
vn 0.855000 0.367700 0.365800
vn 0.858600 0.379800 0.344300
vn 0.963000 0.214500 -0.163400
vn 0.963800 0.213000 -0.160500
vn -0.439400 -0.515600 0.735600
vn -0.458800 -0.545800 0.701100
vn -0.496400 -0.353300 0.792900
vn -0.499900 -0.359100 0.788100
vn -0.559200 -0.027800 0.828600
vn -0.635100 0.038400 0.771500
vn -0.649300 0.128100 0.749600
vn -0.663900 0.137400 0.735100
vn -0.250800 -0.414300 -0.874900
vn -0.201000 -0.448300 -0.871000
vn -0.172800 -0.609900 -0.773400
vn -0.237800 -0.478400 -0.845300
vn -0.310700 0.321000 -0.894700
vn -0.393600 0.637500 -0.662300
vn -0.390000 0.662900 -0.639100
vn -0.379500 0.656500 -0.652000
vn -0.283200 -0.114000 -0.952300
vn -0.415900 -0.010500 -0.909300
vn -0.720600 0.270800 0.638300
vn -0.674200 0.237800 0.699200
vn 0.297000 0.681500 0.668900
vn 0.274300 0.644700 0.713500
vn 0.721400 0.664400 0.195400
vn 0.726300 0.623900 0.288500
vn 0.823600 0.509800 -0.248700
vn 0.797800 0.527400 -0.292200
vn 0.365500 0.209800 -0.906800
vn 0.283500 0.235400 -0.929600
vn 0.373000 0.426900 -0.823800
vn 0.342800 0.372700 -0.862300
vn 0.936400 0.293300 -0.192600
vn 0.388300 0.251400 -0.886600
vn 0.394800 0.290400 -0.871600
vn 0.943800 0.247400 -0.219200
vn 0.888900 0.408600 -0.207300
vn 0.853000 0.352500 0.384900
vn 0.619500 0.681400 0.389800
vn 0.113800 0.787500 0.605700
vn 0.306600 -0.619200 -0.723000
vn 0.324900 -0.585400 -0.742700
vn 0.831900 -0.511400 -0.215300
vn 0.862600 -0.457900 -0.215200
vn 0.886100 -0.387000 0.254900
vn 0.938500 -0.165700 0.302900
vn 0.318600 -0.208400 0.924700
vn 0.259500 0.605700 0.752200
vn 0.224700 0.657500 0.719100
vn 0.097300 0.945800 0.309800
vn -0.164800 0.950600 0.263100
vn -0.229000 0.852600 0.469800
vn 0.921400 0.314100 -0.228900
vn 0.867200 0.308600 0.390900
vn 0.774600 0.573400 0.266800
vn -0.422700 0.605900 0.674000
vn -0.603700 0.283900 0.745000
vn -0.590800 -0.358000 0.723100
vn -0.641400 -0.165700 0.749100
vn 0.317000 -0.217300 0.923200
vn -0.220500 -0.696500 -0.682800
vn -0.220700 -0.673900 -0.705100
vn -0.292500 0.175300 -0.940100
vn -0.305300 0.237800 -0.922100
vn -0.277700 0.467100 -0.839500
vn -0.387200 0.276700 -0.879500
vn -0.000000 -1.000000 -0.000000
vn -0.936800 -0.231200 0.262600
vn -0.925900 -0.209900 0.314000
vn -0.929600 -0.172900 0.325300
vn -0.937200 -0.267700 0.223700
vn -0.971900 -0.064500 0.226200
vn -0.970800 -0.148300 0.188400
vn -0.976500 -0.119300 0.179400
vn -0.977600 -0.117200 0.174800
vn -0.964800 0.191400 -0.180300
vn -0.960300 0.176700 -0.215900
vn -0.950500 -0.116100 -0.288400
vn -0.950600 -0.031700 -0.308700
vn -0.908200 -0.288100 -0.303400
vn -0.896900 -0.368200 -0.245100
vn -0.914700 -0.298200 -0.272800
vn -0.925500 -0.273800 -0.261800
vn -0.817200 0.466500 -0.338500
vn -0.931900 0.280400 -0.230200
vn -0.893600 0.444200 -0.064800
vn -0.863000 0.485700 -0.139300
vn -0.930400 -0.247100 -0.270900
vn -0.929700 -0.265100 -0.255700
vn -0.986700 -0.053600 0.153400
vn -0.963100 -0.124100 0.238900
vn -0.826500 -0.562700 -0.012400
vn -0.712300 -0.699000 0.062600
vn 0.770800 0.609200 -0.186300
vn 0.807400 0.563000 -0.176400
vn 0.810400 0.585400 0.022300
vn -0.152100 0.984900 -0.083200
vn -0.793300 -0.446900 0.413400
vn 0.692200 -0.679800 0.242300
vn 0.799800 -0.599900 0.021600
vn -0.827600 0.118800 -0.548600
vn 0.275500 0.774300 0.569800
vn 0.150800 -0.751100 -0.642700
vn -0.025700 -0.374900 -0.926700
vn 0.640500 -0.223400 -0.734800
vn 0.571400 -0.006800 -0.820600
vn -0.446200 0.506400 -0.737800
vn -0.545900 0.311900 -0.777600
vn -0.242100 0.561000 -0.791600
vn 0.016400 0.580000 -0.814500
vn 0.289500 0.871900 -0.394900
vn 0.284500 0.876100 -0.389300
vn 0.257500 0.950000 -0.176600
vn 0.327200 0.944300 0.035800
vn -0.698200 0.661500 0.273700
vn -0.810800 0.467800 0.351700
vn 0.006300 0.930700 0.365800
vn -0.001700 0.922100 0.386800
vn -0.774200 -0.554600 -0.305000
vn -0.788900 -0.532800 -0.306200
vn -0.922500 0.152700 -0.354500
vn -0.914900 0.234100 -0.329000
vn -0.939000 0.068600 -0.337100
vn -0.863400 0.503000 -0.039300
vn -0.869500 -0.485900 0.088500
vn -0.864400 -0.495400 0.086300
vn -0.920000 0.377200 0.106300
vn -0.959300 0.240300 0.148000
vn -0.594600 0.798400 0.095300
vn -0.961100 0.025800 0.275200
usemtl sack.001
s off
f 1/1/1 2/2/1 3/3/1
f 2/2/2 4/4/2 3/3/2
f 5/5/3 1/1/3 6/6/3
f 1/1/4 3/3/4 6/6/4
f 6/6/5 3/3/5 7/7/5
f 7/7/6 3/3/6 8/8/6
f 3/3/7 4/4/7 8/8/7
f 8/8/8 4/4/8 9/9/8
f 10/10/9 11/11/9 12/12/9
f 11/11/10 7/7/10 12/12/10
f 12/12/11 7/7/11 13/13/11
f 7/7/12 8/8/12 13/13/12
f 8/8/13 9/9/13 13/13/13
f 13/13/14 9/9/14 14/14/14
f 14/14/15 9/9/15 15/15/15
f 15/15/16 9/9/16 16/16/16
f 16/16/17 9/9/17 17/17/17
f 9/9/18 4/4/18 17/17/18
f 17/17/19 4/4/19 18/18/19
f 4/4/20 2/2/20 18/18/20
f 18/18/21 2/2/21 19/19/21
f 19/19/22 2/2/22 20/20/22
f 2/2/23 1/1/23 20/20/23
f 20/20/24 1/1/24 21/21/24
f 1/1/25 5/5/25 21/21/25
f 21/21/26 5/5/26 22/22/26
f 22/22/27 5/5/27 23/23/27
f 23/23/28 5/5/28 24/24/28
f 5/5/29 6/6/29 24/24/29
f 24/24/30 6/6/30 25/25/30
f 6/6/31 7/7/31 25/25/31
f 25/25/32 7/7/32 11/11/32
f 26/26/33 19/19/33 27/27/33
f 19/19/34 20/20/34 27/27/34
f 27/27/35 20/20/35 28/28/35
f 20/20/36 21/21/36 28/28/36
f 21/21/37 22/22/37 28/28/37
f 28/28/38 22/22/38 29/29/38
f 22/22/39 23/23/39 29/29/39
f 29/29/40 23/23/40 30/30/40
f 31/31/41 10/10/41 32/32/41
f 10/10/42 12/12/42 32/32/42
f 32/32/43 12/12/43 33/33/43
f 12/12/44 13/13/44 33/33/44
f 33/33/45 13/13/45 34/34/45
f 13/13/46 14/14/46 34/34/46
f 34/34/47 14/14/47 35/35/47
f 14/14/48 15/15/48 35/35/48
f 10/10/49 31/31/49 36/36/49
f 31/31/50 37/37/50 36/36/50
f 38/38/51 30/30/51 39/39/51
f 30/30/52 23/23/52 39/39/52
f 23/23/53 24/24/53 39/39/53
f 39/39/54 24/24/54 40/40/54
f 24/24/55 25/25/55 40/40/55
f 40/40/56 25/25/56 41/41/56
f 25/25/57 11/11/57 41/41/57
f 41/41/58 11/11/58 42/42/58
f 11/11/59 10/10/59 42/42/59
f 42/42/60 10/10/60 36/36/60
f 43/43/61 15/15/61 44/44/61
f 15/15/62 16/16/62 44/44/62
f 44/44/63 16/16/63 17/17/63
f 45/45/64 43/43/64 46/46/64
f 43/43/65 44/44/65 46/46/65
f 46/46/66 44/44/66 47/47/66
f 44/44/67 17/17/67 47/47/67
f 47/47/68 17/17/68 48/48/68
f 17/17/69 18/18/69 48/48/69
f 48/48/70 18/18/70 19/19/70
f 49/49/71 45/45/71 50/50/71
f 45/45/72 46/46/72 50/50/72
f 50/50/73 46/46/73 51/51/73
f 46/46/74 52/52/74 51/51/74
f 51/51/75 52/52/75 53/53/75
f 52/52/76 54/54/76 53/53/76
f 53/53/77 54/54/77 55/55/77
f 54/54/78 48/48/78 55/55/78
f 55/55/79 48/48/79 56/56/79
f 48/48/80 19/19/80 56/56/80
f 56/56/81 19/19/81 57/57/81
f 19/19/82 26/26/82 57/57/82
f 46/46/83 47/47/83 52/52/83
f 47/47/84 48/48/84 52/52/84
f 52/52/85 48/48/85 54/54/85
f 56/56/86 57/57/86 55/55/86
f 57/57/87 58/58/87 55/55/87
f 58/58/88 59/59/88 55/55/88
f 59/59/89 60/60/89 55/55/89
f 55/55/90 60/60/90 53/53/90
f 61/61/91 62/62/91 49/49/91
f 49/49/92 62/62/92 45/45/92
f 45/45/93 62/62/93 43/43/93
f 62/62/94 63/63/94 43/43/94
f 63/63/95 35/35/95 43/43/95
f 43/43/96 35/35/96 15/15/96
f 59/64/97 64/65/97 65/66/97
f 64/65/97 61/67/97 65/66/97
f 61/67/97 49/68/97 65/66/97
f 49/68/97 50/69/97 65/66/97
f 50/69/97 51/70/97 65/66/97
f 51/70/97 53/71/97 65/66/97
f 53/71/97 60/72/97 65/66/97
f 65/66/97 60/72/97 59/64/97
f 66/73/98 26/26/98 67/74/98
f 26/26/99 27/27/99 67/74/99
f 67/74/100 27/27/100 68/75/100
f 27/27/101 28/28/101 68/75/101
f 68/75/102 28/28/102 69/76/102
f 28/28/103 29/29/103 69/76/103
f 29/29/104 30/30/104 69/76/104
f 69/76/105 30/30/105 70/77/105
f 35/35/106 66/78/106 34/34/106
f 66/78/107 67/79/107 34/34/107
f 67/79/108 68/80/108 34/34/108
f 34/34/109 68/80/109 33/33/109
f 68/80/110 69/81/110 33/33/110
f 33/33/111 69/81/111 32/32/111
f 32/32/112 69/81/112 31/31/112
f 69/81/113 70/82/113 31/31/113
f 79/83/114 80/84/114 37/37/114
f 80/84/115 81/85/115 37/37/115
f 38/38/116 82/86/116 79/87/116
f 82/86/117 80/88/117 79/87/117
f 70/82/118 79/83/118 31/31/118
f 79/83/119 37/37/119 31/31/119
f 30/30/120 38/38/120 70/77/120
f 38/38/121 79/87/121 70/77/121
f 80/89/122 75/90/122 81/91/122
f 75/90/123 74/92/123 81/91/123
f 83/93/124 76/94/124 84/95/124
f 76/94/125 78/96/125 84/95/125
f 84/97/126 78/98/126 85/99/126
f 78/98/127 72/100/127 85/99/127
f 73/101/128 75/102/128 80/103/128
f 73/101/129 82/104/129 71/105/129
f 82/104/130 86/106/130 71/105/130
f 71/105/131 86/106/131 72/100/131
f 86/106/132 85/99/132 72/100/132
f 81/91/133 74/92/133 87/107/133
f 74/92/134 77/108/134 87/107/134
f 87/107/135 77/108/135 83/93/135
f 77/108/136 76/94/136 83/93/136
f 37/37/137 81/85/137 36/36/137
f 81/85/138 87/109/138 36/36/138
f 87/109/139 83/110/139 36/36/139
f 36/36/140 83/110/140 42/42/140
f 42/42/141 83/110/141 41/41/141
f 83/110/142 84/111/142 41/41/142
f 84/111/143 85/112/143 41/41/143
f 41/41/144 85/112/144 40/40/144
f 38/38/145 39/39/145 82/86/145
f 82/86/146 39/39/146 86/113/146
f 39/39/147 40/40/147 86/113/147
f 86/113/148 40/40/148 85/112/148
f 61/61/149 64/114/149 62/62/149
f 64/114/150 88/115/150 62/62/150
f 62/62/151 88/115/151 63/63/151
f 88/115/152 89/116/152 63/63/152
f 63/63/153 89/116/153 35/35/153
f 89/116/154 66/78/154 35/35/154
f 64/117/155 59/59/155 88/118/155
f 59/59/156 58/58/156 88/118/156
f 58/58/157 57/57/157 88/118/157
f 88/118/158 57/57/158 89/119/158
f 57/57/159 26/26/159 89/119/159
f 89/119/160 26/26/160 66/73/160
