# Blender v2.76 (sub 0) OBJ File: 'Sackboy.blend'
# www.blender.org
mtllib luJoint.mtl
o Cube.001
v 1.615538 2.074784 -0.799481
v 1.615538 2.322463 -0.799481
v 1.615538 2.074784 -1.047159
v 1.615538 2.322463 -1.047159
v 1.863217 2.074784 -0.799481
v 1.863217 2.322463 -0.799481
v 1.863217 2.074784 -1.047159
v 1.863217 2.322463 -1.047159
vt 0.333134 0.000200
vt 0.000200 0.000200
vt 0.000200 0.333134
vt 0.333134 0.333134
vt 0.666467 0.000200
vt 0.333533 0.000200
vt 0.333533 0.333134
vt 0.666467 0.333134
vt 0.000200 0.333533
vt 0.333134 0.333533
vt 0.333134 0.666467
vt 0.000200 0.666467
vt 0.333533 0.333533
vt 0.666467 0.333533
vt 0.666467 0.666467
vt 0.333533 0.666467
vt 0.333134 0.999800
vt 0.333134 0.666867
vt 0.000200 0.666867
vt 0.000200 0.999800
vt 0.666866 0.333134
vt 0.666866 0.000200
vt 0.999800 0.000200
vt 0.999800 0.333134
vn -1.000000 0.000000 0.000000
vn 0.000000 0.000000 -1.000000
vn 1.000000 0.000000 0.000000
vn 0.000000 0.000000 1.000000
vn 0.000000 -1.000000 0.000000
vn 0.000000 1.000000 0.000000
usemtl Material.001
s off
f 2/1/1 4/2/1 3/3/1 1/4/1
f 4/5/2 8/6/2 7/7/2 3/8/2
f 8/9/3 6/10/3 5/11/3 7/12/3
f 6/13/4 2/14/4 1/15/4 5/16/4
f 1/17/5 3/18/5 7/19/5 5/20/5
f 6/21/6 8/22/6 4/23/6 2/24/6
